<?xml version="1.0" encoding="iso-8859-1"?>
<!-- Generator: Adobe Illustrator 19.0.0, SVG Export Plug-In . SVG Version: 6.00 Build 0)  -->
<svg version="1.1" id="Layer_1" xmlns="http://www.w3.org/2000/svg" xmlns:xlink="http://www.w3.org/1999/xlink" x="0px" y="0px"
	 viewBox="0 0 512 512" style="enable-background:new 0 0 512 512;" xml:space="preserve">
<g>
	<g>
		<path d="M482.063,93.631c-2.556-3.896-7.79-4.981-11.684-2.426c-3.897,2.556-4.983,7.788-2.426,11.684
			c17.775,27.089,27.17,59.636,27.17,94.126c0,36.087-15.449,93.943-89.055,164.629c-14.432,13.871-30.271,27.426-47.366,40.552
			V280.33c5.243-1.11,10.316-3.292,14.864-6.596l8.792-6.388c12.952,7.05,21.118,20.542,21.118,35.546v31.576
			c0,4.66,3.777,8.438,8.438,8.438s8.438-3.778,8.438-8.438v-31.576c0-18.627-8.873-35.629-23.417-46.268
			c12.895-10.675,19.687-27.255,17.834-44.023l-2.689-24.32c-3.467-31.355-29.87-55-61.416-55c-31.546,0-57.949,23.645-61.415,55
			l-2.691,24.321c-1.114,10.083,0.902,20.097,5.486,28.802c-9.268-5.507-20.072-8.657-31.567-8.657
			c-12.914,0-24.963,3.967-34.933,10.799c-0.042-0.539-0.064-1.077-0.124-1.616l-2.688-24.32c-3.466-31.355-29.87-55-61.417-55
			c-31.546,0-57.95,23.645-61.416,55l-2.684,24.319c-1.854,16.767,4.938,33.35,17.835,44.025
			c-14.542,10.64-23.414,27.639-23.414,46.266v15.121c-61.343-64.149-74.76-116.683-74.76-150.327
			c0-84.636,57.913-153.492,129.097-153.492c56.013,0,101.583,54.327,101.583,121.105c0,4.66,3.777,8.438,8.438,8.438
			c4.661,0,8.438-3.778,8.438-8.438c0-66.777,45.57-121.105,101.584-121.105c29.734,0,58.754,12.323,81.714,34.696
			c3.338,3.253,8.68,3.183,11.931-0.154c3.254-3.338,3.184-8.68-0.154-11.932c-26.13-25.462-59.333-39.486-93.493-39.486
			c-49.81,0-92.54,35.997-110.022,86.828c-17.482-50.832-60.211-86.828-110.021-86.828C65.483,26.647,0,103.074,0,197.015
			c0,56.49,32.584,117.627,94.224,176.796c10.132,9.743,21.141,19.495,32.71,28.977c7.529,6.191,15.54,12.45,23.803,18.597
			c14.18,10.575,29.107,20.833,44.362,30.482c7.305,4.631,15.117,9.373,23.227,14.098c11.175,6.497,22.557,12.71,33.834,18.465
			c1.204,0.614,2.52,0.923,3.835,0.923c1.317,0,2.636-0.308,3.842-0.926c11.327-5.793,22.709-12.008,33.823-18.47
			c10.867-6.31,21.735-13.015,32.301-19.922c34.532-22.566,65.418-46.865,91.8-72.218C479.412,314.61,512,253.474,512,197.018
			C512,159.228,501.648,123.479,482.063,93.631z M350.666,150.155c18.573,0.001,34.69,11.277,41.485,27.674
			c-26.08,0.297-55.139-9.239-71.937-15.784C328.249,154.636,338.968,150.155,350.666,150.155z M309.927,176.124
			c2.659,1.087,5.622,2.252,8.835,3.452c-3.34,3.322-7.651,6.848-12.538,9.072C306.862,184.219,308.122,180.013,309.927,176.124z
			 M213.15,313.921l2.69-24.32c2.518-22.792,21.709-39.98,44.64-39.98c22.932,0,42.123,17.187,44.644,39.98l2.688,24.32
			c1.305,11.802-3.852,23.469-13.457,30.447l-20.892,15.179c-7.765,5.641-18.198,5.643-25.963,0l-20.892-15.18
			C217.003,337.389,211.846,325.723,213.15,313.921z M203.508,208.969c-18.427-4.003-26.997-17.94-30.85-28.031
			C186.892,184.634,198.464,195.128,203.508,208.969z M149.924,180.953c-1.119,2.923-2.617,6.164-4.618,9.39
			c-6.237,10.052-15.025,16.29-26.187,18.659C124.15,195.162,135.705,184.666,149.924,180.953z M113.988,243.785l1.901-17.193
			c23.422-2.422,36.642-15.885,43.756-27.351c0.592-0.954,1.148-1.908,1.674-2.859c0.527,0.95,1.081,1.904,1.674,2.859
			c7.115,11.466,20.334,24.928,43.758,27.351l1.899,17.192c1.305,11.802-3.852,23.469-13.457,30.447l-20.892,15.179
			c-7.764,5.641-18.197,5.642-25.963,0l-20.892-15.179C117.84,267.252,112.684,255.585,113.988,243.785z M129.629,296.677
			l8.79,6.386c6.849,4.975,14.874,7.464,22.899,7.464c8.025,0,16.053-2.487,22.9-7.464l14.299-10.39l-2.143,19.394
			c-0.437,3.942-0.368,7.869,0.118,11.716h-87.085C111.836,312.271,119.165,302.373,129.629,296.677z M191.241,395.232
			c-0.043,0.344-0.064,0.691-0.064,1.037v32.937c-10.389-6.899-20.559-14.046-30.36-21.356c-8.051-5.99-15.845-12.08-23.175-18.107
			c-10.256-8.405-20.034-17.015-29.13-25.632v-23.454h93.233c3.052,5.864,7.271,11.135,12.484,15.446
			C201.669,365.329,193.201,379.416,191.241,395.232z M312.905,434.368c-9.112,5.875-18.411,11.588-27.724,16.996
			c-9.602,5.583-19.404,10.975-29.19,16.059c-9.743-5.053-19.541-10.44-29.176-16.043c-6.493-3.784-12.773-7.574-18.761-11.309
			v-43.255c1.743-12.77,9.52-23.881,20.735-30.004l8.792,6.388c6.849,4.975,14.874,7.464,22.899,7.464s16.053-2.487,22.9-7.464
			l8.792-6.388c11.213,6.122,18.991,17.233,20.733,30.004V434.368z M341.828,414.719c-3.957,2.839-7.972,5.654-12.045,8.447V396.27
			c0-0.348-0.021-0.694-0.064-1.038c-1.961-15.816-10.43-29.903-22.987-39.127c12.907-10.674,19.707-27.263,17.853-44.038
			l-2.688-24.32c-0.96-8.683-3.685-16.77-7.785-23.932l13.655,9.919c4.318,3.138,9.103,5.281,14.061,6.44V414.719z M337.686,260.081
			l-20.893-15.179c-9.605-6.979-14.762-18.645-13.458-30.447l0.827-7.473c14.947-3.119,26.368-14.626,32.036-21.505
			c16.458,4.995,35.951,9.238,54.709,9.238c1.64,0,3.271-0.045,4.897-0.111l2.195,19.853c1.304,11.801-3.853,23.467-13.458,30.446
			l-20.892,15.179C355.886,265.722,345.451,265.723,337.686,260.081z"/>
	</g>
</g>
<g>
	<g>
		<circle cx="375.158" cy="216.785" r="8.438"/>
	</g>
</g>
<g>
	<g>
		<circle cx="326.174" cy="216.785" r="8.438"/>
	</g>
</g>
<g>
	<g>
		<circle cx="284.974" cy="310.569" r="8.438"/>
	</g>
</g>
<g>
	<g>
		<circle cx="235.99" cy="310.569" r="8.438"/>
	</g>
</g>
<g>
	<g>
		<circle cx="185.813" cy="239.488" r="8.438"/>
	</g>
</g>
<g>
	<g>
		<circle cx="136.828" cy="239.488" r="8.438"/>
	</g>
</g>
<g>
</g>
<g>
</g>
<g>
</g>
<g>
</g>
<g>
</g>
<g>
</g>
<g>
</g>
<g>
</g>
<g>
</g>
<g>
</g>
<g>
</g>
<g>
</g>
<g>
</g>
<g>
</g>
<g>
</g>
</svg>
